<svg xmlns="http://www.w3.org/2000/svg" version="1.1" xmlns:xlink="http://www.w3.org/1999/xlink" width="512" height="512" x="0" y="0" viewBox="0 0 24 25" style="enable-background:new 0 0 512 512" xml:space="preserve" class=""><g><linearGradient id="a" x1="12" x2="12" y1="3.384" y2="22.496" gradientUnits="userSpaceOnUse"><stop offset="0" stop-color="#1bb0fd"></stop><stop offset="1" stop-color="#9bfcce"></stop></linearGradient><path fill="url(#a)" fill-rule="evenodd" d="M2.78 12.19h4.48c.074-2.54.516-4.852 1.215-6.6.215-.537.46-1.033.732-1.47a9.257 9.257 0 0 0-6.427 8.07zm9.22-10c-5.937 0-10.75 4.813-10.75 10.75S6.063 23.69 12 23.69s10.75-4.813 10.75-10.75S17.937 2.19 12 2.19zm0 1.5c-.28 0-.622.139-1.012.551-.392.415-.78 1.054-1.12 1.907-.617 1.54-1.034 3.657-1.107 6.042h6.478c-.073-2.385-.49-4.501-1.107-6.042-.34-.853-.728-1.492-1.12-1.907-.39-.412-.732-.55-1.012-.55zm4.74 8.5c-.074-2.54-.516-4.852-1.215-6.6a9.346 9.346 0 0 0-.732-1.47 9.257 9.257 0 0 1 6.427 8.07zm-1.501 1.5H8.76c.073 2.385.49 4.502 1.107 6.043.34.852.728 1.492 1.12 1.906.39.413.732.551 1.012.551s.622-.138 1.012-.551c.392-.414.78-1.054 1.12-1.906.617-1.541 1.034-3.658 1.107-6.043zm-.446 8.071c.273-.437.517-.933.732-1.471.699-1.748 1.141-4.06 1.214-6.6h4.481a9.257 9.257 0 0 1-6.427 8.071zm-5.586 0a9.348 9.348 0 0 1-.732-1.471c-.699-1.748-1.141-4.06-1.214-6.6H2.78a9.257 9.257 0 0 0 6.427 8.071z" clip-rule="evenodd" opacity="1" class=""></path></g></svg>